<svg xmlns="http://www.w3.org/2000/svg" viewBox="0 0 32 32">
  <rect width="32" height="32" rx="4" fill="#0b0a0f"/>
  <!-- hood outline -->
  <path d="M6 20 Q6 8 16 4 Q26 8 26 20 Q24 18 20 24 Q18 28 16 28 Q14 28 12 24 Q8 18 6 20Z" fill="#1a1525" stroke="#d4af37" stroke-width=".5" opacity=".9"/>
  <!-- inner shadow -->
  <path d="M8 18 Q8 10 16 6 Q24 10 24 18 Q22 16 19 22 Q17 26 16 26 Q15 26 13 22 Q10 16 8 18Z" fill="#0e0a14" opacity=".8"/>
  <!-- left eye glow -->
  <ellipse cx="13" cy="14" rx="2.5" ry="3" fill="#d4af37" opacity=".9"/>
  <ellipse cx="13" cy="14" rx="1.2" ry="1.5" fill="#ffdd55" opacity=".7"/>
  <!-- right eye glow -->
  <ellipse cx="19" cy="14" rx="2.5" ry="3" fill="#d4af37" opacity=".9"/>
  <ellipse cx="19" cy="14" rx="1.2" ry="1.5" fill="#ffdd55" opacity=".7"/>
  <!-- eye glow aura -->
  <circle cx="13" cy="14" r="5" fill="#d4af37" opacity=".04"/>
  <circle cx="19" cy="14" r="5" fill="#d4af37" opacity=".04"/>
  <!-- arcane rune on hood -->
  <path d="M16 19 L17 21 L16 23 L15 21Z" fill="none" stroke="#d4af37" stroke-width=".3" opacity=".3"/>
</svg>
